{
  "accessors": [
    {
      "bufferView": 2,
      "componentType": 5126,
      "count": 5993,
      "max": [
        3.9854001998901367,
        1.8018834590911865,
        4.1564226150512695
      ],
      "min": [
        -3.9878997802734375,
        -3.415372133255005,
        -4.650557041168213
      ],
      "type": "VEC3"
    },
    {
      "bufferView": 2,
      "byteOffset": 71916,
      "componentType": 5126,
      "count": 5993,
      "max": [
        0.9999880790710449,
        0.9996902942657471,
        0.9997750520706177
      ],
      "min": [
        -0.9999880790710449,
        -0.9999057054519653,
        -0.9994288682937622
      ],
      "type": "VEC3"
    },
    {
      "bufferView": 3,
      "componentType": 5126,
      "count": 5993,
      "max": [
        0.9997246265411377,
        0.9999364018440247,
        0.9996371865272522,
        1.0
      ],
      "min": [
        -0.9997245073318481,
        -0.999890148639679,
        -0.9999645948410034,
        -1.0
      ],
      "type": "VEC4"
    },
    {
      "bufferView": 1,
      "componentType": 5126,
      "count": 5993,
      "max": [
        0.9106441140174866,
        0.9827367663383484
      ],
      "min": [
        0.0188758485019207,
        0.02191522717475891
      ],
      "type": "VEC2"
    },
    {
      "bufferView": 0,
      "componentType": 5125,
      "count": 27996,
      "type": "SCALAR"
    }
  ],
  "asset": {
    "extras": {
      "author": "assetfactory (https://sketchfab.com/assetfactory)",
      "license": "CC-BY-4.0 (http://creativecommons.org/licenses/by/4.0/)",
      "source": "https://sketchfab.com/3d-models/low-poly-skeleton-ribs-bbfe5e9f25854433b8fb8c4a3f4eaf33",
      "title": "Low poly skeleton ribs"
    },
    "generator": "Sketchfab-13.68.0",
    "version": "2.0"
  },
  "bufferViews": [
    {
      "buffer": 0,
      "byteLength": 111984,
      "name": "floatBufferViews",
      "target": 34963
    },
    {
      "buffer": 0,
      "byteLength": 47944,
      "byteOffset": 111984,
      "byteStride": 8,
      "name": "floatBufferViews",
      "target": 34962
    },
    {
      "buffer": 0,
      "byteLength": 143832,
      "byteOffset": 159928,
      "byteStride": 12,
      "name": "floatBufferViews",
      "target": 34962
    },
    {
      "buffer": 0,
      "byteLength": 95888,
      "byteOffset": 303760,
      "byteStride": 16,
      "name": "floatBufferViews",
      "target": 34962
    }
  ],
  "buffers": [
    {
      "byteLength": 399648,
      "uri": "scene.bin"
    }
  ],
  "images": [
    {
      "uri": "textures/ribs_baseColor.png"
    },
    {
      "uri": "textures/ribs_metallicRoughness.png"
    },
    {
      "uri": "textures/ribs_normal.png"
    }
  ],
  "materials": [
    {
      "doubleSided": true,
      "name": "ribs",
      "normalTexture": {
        "index": 2
      },
      "pbrMetallicRoughness": {
        "baseColorTexture": {
          "index": 0
        },
        "metallicFactor": 0.0,
        "metallicRoughnessTexture": {
          "index": 1
        }
      }
    }
  ],
  "meshes": [
    {
      "name": "ribs_ribs_0",
      "primitives": [
        {
          "attributes": {
            "NORMAL": 1,
            "POSITION": 0,
            "TANGENT": 2,
            "TEXCOORD_0": 3
          },
          "indices": 4,
          "material": 0,
          "mode": 4
        }
      ]
    }
  ],
  "nodes": [
    {
      "children": [
        1
      ],
      "matrix": [
        1.0,
        0.0,
        0.0,
        0.0,
        0.0,
        2.220446049250313e-16,
        -1.0,
        0.0,
        0.0,
        1.0,
        2.220446049250313e-16,
        0.0,
        0.0,
        0.0,
        0.0,
        1.0
      ],
      "name": "Sketchfab_model"
    },
    {
      "children": [
        2
      ],
      "matrix": [
        0.009999999776482582,
        0.0,
        0.0,
        0.0,
        0.0,
        0.0,
        0.009999999776482582,
        0.0,
        0.0,
        -0.009999999776482582,
        0.0,
        0.0,
        0.0,
        0.0,
        0.0,
        1.0
      ],
      "name": "abfbddb732994f99af332291d6fd5e15.fbx"
    },
    {
      "children": [
        3
      ],
      "name": "RootNode"
    },
    {
      "children": [
        4
      ],
      "matrix": [
        100.0,
        0.0,
        0.0,
        0.0,
        0.0,
        -1.629206793918314e-05,
        -99.99999999999868,
        0.0,
        0.0,
        99.99999999999868,
        -1.629206793918314e-05,
        0.0,
        0.0,
        521.0592041015625,
        0.0,
        1.0
      ],
      "name": "ribs"
    },
    {
      "mesh": 0,
      "name": "ribs_ribs_0"
    }
  ],
  "samplers": [
    {
      "magFilter": 9729,
      "minFilter": 9987,
      "wrapS": 10497,
      "wrapT": 10497
    }
  ],
  "scene": 0,
  "scenes": [
    {
      "name": "Sketchfab_Scene",
      "nodes": [
        0
      ]
    }
  ],
  "textures": [
    {
      "sampler": 0,
      "source": 0
    },
    {
      "sampler": 0,
      "source": 1
    },
    {
      "sampler": 0,
      "source": 2
    }
  ]
}
