{"asset":{"version":"2.0","generator":"THREE.GLTFExporter"},"scenes":[{"name":"AuxScene","nodes":[1]}],"scene":0,"nodes":[{"name":"Object_293","extras":{"name":"Object_293"},"mesh":0},{"matrix":[0.999524800169968,0.01146146090569229,-0.02861483459838038,0,0.01679001725499143,-0.9809425790257777,0.19357105148971288,0,-0.025850902610208205,-0.19395951012560142,-0.9806688734053277,0,0,0,0,1],"name":"Unterschenkel_Fibula_L002_163","extras":{"name":"Unterschenkel Fibula L.002_163"},"children":[0]}],"bufferViews":[{"buffer":0,"byteOffset":0,"byteLength":216000,"target":34962,"byteStride":12},{"buffer":0,"byteOffset":216000,"byteLength":216000,"target":34962,"byteStride":12},{"buffer":0,"byteOffset":432000,"byteLength":144000,"target":34962,"byteStride":8},{"buffer":0,"byteOffset":576000,"byteLength":382536,"target":34963}],"buffers":[{"byteLength":958536,"uri":"data:application/octet-stream;base64,"}],"accessors":[{"bufferView":0,"componentType":5126,"count":18000,"max":[0.9999611973762512,0.9988645911216736,0.9993972778320312],"min":[-0.9999890923500061,-0.9999611377716064,-0.9996260404586792],"type":"VEC3"},{"bufferView":1,"componentType":5126,"count":18000,"max":[0.06602080911397934,0.788492739200592,0.20526674389839172],"min":[-0.08573032915592194,-0.7421455979347229,-0.19859834015369415],"type":"VEC3"},{"bufferView":2,"componentType":5126,"count":18000,"max":[1.184744954109192,1.184744954109192],"min":[-0.1847449541091919,-0.1847449541091919],"type":"VEC2"},{"bufferView":3,"componentType":5125,"count":95634,"max":[17999],"min":[0],"type":"SCALAR"}],"materials":[{"pbrMetallicRoughness":{"metallicFactor":0,"roughnessFactor":0.455777,"baseColorTexture":{"index":0,"texCoord":0}},"doubleSided":true,"name":"Bone","extensions":{"KHR_materials_specular":{"specularTexture":{"index":1,"texCoord":0},"specularFactor":1,"specularColorFactor":[1,1,1]}}}],"textures":[{"sampler":0,"source":0,"name":"textures/Bone_baseColor.jpeg"},{"sampler":1,"source":1,"name":"textures/Bone_specularf0.png"}],"samplers":[{"magFilter":9729,"minFilter":9987,"wrapS":10497,"wrapT":10497},{"magFilter":9729,"minFilter":9987,"wrapS":10497,"wrapT":10497}],"images":[{"mimeType":"image/jpeg","uri":"data:image/jpeg;base64,"},{"mimeType":"image/png","uri":"data:image/png;base64,"}],"meshes":[{"primitives":[{"mode":4,"attributes":{"NORMAL":0,"POSITION":1,"TEXCOORD_0":2},"indices":3,"material":0}]}],"extensionsUsed":["KHR_materials_specular"]}