{"asset":{"version":"2.0","generator":"THREE.GLTFExporter"},"scenes":[{"name":"AuxScene","nodes":[1]}],"scene":0,"nodes":[{"name":"Object_295","extras":{"name":"Object_295"},"mesh":0},{"matrix":[0.9995248002209294,0.01146146108732548,-0.028614832745535293,0,0.01679001707407827,-0.9809425790252921,0.19357105150786635,0,-0.025850900757292683,-0.19395951011732476,-0.9806688734558082,0,0,0,0,1],"name":"Unterschenkelknochen_L001_164","extras":{"name":"Unterschenkelknochen L.001_164"},"children":[0]}],"bufferViews":[{"buffer":0,"byteOffset":0,"byteLength":281964,"target":34962,"byteStride":12},{"buffer":0,"byteOffset":281964,"byteLength":281964,"target":34962,"byteStride":12},{"buffer":0,"byteOffset":563928,"byteLength":187976,"target":34962,"byteStride":8},{"buffer":0,"byteOffset":751904,"byteLength":494112,"target":34963}],"buffers":[{"byteLength":1246016,"uri":"data:application/octet-stream;base64,"}],"accessors":[{"bufferView":0,"componentType":5126,"count":23497,"max":[0.9999898076057434,0.9999060034751892,0.9999752640724182],"min":[-0.9999732375144958,-0.9997734427452087,-0.9999964833259583],"type":"VEC3"},{"bufferView":1,"componentType":5126,"count":23497,"max":[0.19487005472183228,-0.08305269479751587,0.16781646013259888],"min":[-0.17536163330078125,-1.658578872680664,-0.356026291847229],"type":"VEC3"},{"bufferView":2,"componentType":5126,"count":23497,"max":[1.4836900234222412,1.4726383686065674],"min":[-0.48245519399642944,-0.45041418075561523],"type":"VEC2"},{"bufferView":3,"componentType":5125,"count":123528,"max":[23496],"min":[0],"type":"SCALAR"}],"materials":[{"pbrMetallicRoughness":{"metallicFactor":0,"roughnessFactor":0.455777,"baseColorTexture":{"index":0,"texCoord":0}},"doubleSided":true,"name":"Bone","extensions":{"KHR_materials_specular":{"specularTexture":{"index":1,"texCoord":0},"specularFactor":1,"specularColorFactor":[1,1,1]}}}],"textures":[{"sampler":0,"source":0,"name":"textures/Bone_baseColor.jpeg"},{"sampler":1,"source":1,"name":"textures/Bone_specularf0.png"}],"samplers":[{"magFilter":9729,"minFilter":9987,"wrapS":10497,"wrapT":10497},{"magFilter":9729,"minFilter":9987,"wrapS":10497,"wrapT":10497}],"images":[{"mimeType":"image/jpeg","uri":"data:image/jpeg;base64,"},{"mimeType":"image/png","uri":"data:image/png;base64,"}],"meshes":[{"primitives":[{"mode":4,"attributes":{"NORMAL":0,"POSITION":1,"TEXCOORD_0":2},"indices":3,"material":0}]}],"extensionsUsed":["KHR_materials_specular"]}