{"asset":{"version":"2.0","generator":"THREE.GLTFExporter"},"scenes":[{"name":"AuxScene","nodes":[1]}],"scene":0,"nodes":[{"name":"Object_281","extras":{"name":"Object_281"},"mesh":0},{"matrix":[-0.005584352474849119,-0.03007754885204502,0.9995319685045045,0,-0.05680900921667784,-0.9979237564393069,-0.03034654520506783,0,0.998369446387086,-0.05695188661595557,0.00386408224903112,0,0,0,0,1],"name":"Oberschenkelknochen_L003_160","extras":{"name":"Oberschenkelknochen L.003_160"},"children":[0]}],"bufferViews":[{"buffer":0,"byteOffset":0,"byteLength":581076,"target":34962,"byteStride":12},{"buffer":0,"byteOffset":581076,"byteLength":581076,"target":34962,"byteStride":12},{"buffer":0,"byteOffset":1162152,"byteLength":387384,"target":34962,"byteStride":8},{"buffer":0,"byteOffset":1549536,"byteLength":1019520,"target":34963}],"buffers":[{"byteLength":2569056,"uri":"data:application/octet-stream;base64,"}],"accessors":[{"bufferView":0,"componentType":5126,"count":48423,"max":[0.9999978542327881,0.9996031522750854,0.9999974966049194],"min":[-0.9999749660491943,-0.9999428987503052,-0.9999855160713196],"type":"VEC3"},{"bufferView":1,"componentType":5126,"count":48423,"max":[0.25681450963020325,0.08133422583341599,0.10567300766706467],"min":[-0.23788928985595703,-1.8509091138839722,-0.240474134683609],"type":"VEC3"},{"bufferView":2,"componentType":5126,"count":48423,"max":[1.0629847049713135,1.2876715660095215],"min":[-0.12123894691467285,-0.26051032543182373],"type":"VEC2"},{"bufferView":3,"componentType":5125,"count":254880,"max":[48422],"min":[0],"type":"SCALAR"}],"materials":[{"pbrMetallicRoughness":{"metallicFactor":0,"roughnessFactor":0.455777,"baseColorTexture":{"index":0,"texCoord":0}},"doubleSided":true,"name":"Bone","extensions":{"KHR_materials_specular":{"specularTexture":{"index":1,"texCoord":0},"specularFactor":1,"specularColorFactor":[1,1,1]}}}],"textures":[{"sampler":0,"source":0,"name":"textures/Bone_baseColor.jpeg"},{"sampler":1,"source":1,"name":"textures/Bone_specularf0.png"}],"samplers":[{"magFilter":9729,"minFilter":9987,"wrapS":10497,"wrapT":10497},{"magFilter":9729,"minFilter":9987,"wrapS":10497,"wrapT":10497}],"images":[{"mimeType":"image/jpeg","uri":"data:image/jpeg;base64,"},{"mimeType":"image/png","uri":"data:image/png;base64,"}],"meshes":[{"primitives":[{"mode":4,"attributes":{"NORMAL":0,"POSITION":1,"TEXCOORD_0":2},"indices":3,"material":0}]}],"extensionsUsed":["KHR_materials_specular"]}