{"asset":{"version":"2.0","generator":"THREE.GLTFExporter"},"scenes":[{"name":"AuxScene","nodes":[1]}],"scene":0,"nodes":[{"name":"Object_286","extras":{"name":"Object_286"},"mesh":0},{"matrix":[0.9995607694842249,-0.011433742873409897,0.028785440619840414,0,-0.016794614654888528,-0.9809472187170736,0.19354713898642795,0,0.026025273668845803,-0.19395483834931118,-0.98075526089916,0,-0.0022815465927124023,0.006368258502334356,0.04321324825286865,1],"name":"Unterschenkelknochen_L003_158","extras":{"name":"Unterschenkelknochen L.003_158"},"children":[0]}],"bufferViews":[{"buffer":0,"byteOffset":0,"byteLength":281220,"target":34962,"byteStride":12},{"buffer":0,"byteOffset":281220,"byteLength":281220,"target":34962,"byteStride":12},{"buffer":0,"byteOffset":562440,"byteLength":187480,"target":34962,"byteStride":8},{"buffer":0,"byteOffset":749920,"byteLength":493560,"target":34963}],"buffers":[{"byteLength":1243480,"uri":"data:application/octet-stream;base64,"}],"accessors":[{"bufferView":0,"componentType":5126,"count":23435,"max":[0.9999947547912598,0.9999197125434875,0.999970555305481],"min":[-0.9999992251396179,-0.9997066855430603,-0.9999758005142212],"type":"VEC3"},{"bufferView":1,"componentType":5126,"count":23435,"max":[0.174603670835495,-0.08296611160039902,0.17310428619384766],"min":[-0.19558879733085632,-1.6584283113479614,-0.35389137268066406],"type":"VEC3"},{"bufferView":2,"componentType":5126,"count":23435,"max":[1.334761381149292,1.326662302017212],"min":[-0.3335949778556824,-0.30451273918151855],"type":"VEC2"},{"bufferView":3,"componentType":5125,"count":123390,"max":[23434],"min":[0],"type":"SCALAR"}],"materials":[{"pbrMetallicRoughness":{"metallicFactor":0,"roughnessFactor":0.455777,"baseColorTexture":{"index":0,"texCoord":0}},"doubleSided":true,"name":"Bone","extensions":{"KHR_materials_specular":{"specularTexture":{"index":1,"texCoord":0},"specularFactor":1,"specularColorFactor":[1,1,1]}}}],"textures":[{"sampler":0,"source":0,"name":"textures/Bone_baseColor.jpeg"},{"sampler":1,"source":1,"name":"textures/Bone_specularf0.png"}],"samplers":[{"magFilter":9729,"minFilter":9987,"wrapS":10497,"wrapT":10497},{"magFilter":9729,"minFilter":9987,"wrapS":10497,"wrapT":10497}],"images":[{"mimeType":"image/jpeg","uri":"data:image/jpeg;base64,"},{"mimeType":"image/png","uri":"data:image/png;base64,"}],"meshes":[{"primitives":[{"mode":4,"attributes":{"NORMAL":0,"POSITION":1,"TEXCOORD_0":2},"indices":3,"material":0}]}],"extensionsUsed":["KHR_materials_specular"]}