{"asset":{"version":"2.0","generator":"THREE.GLTFExporter"},"scenes":[{"name":"AuxScene","nodes":[1]}],"scene":0,"nodes":[{"name":"Object_290","extras":{"name":"Object_290"},"mesh":0},{"matrix":[-0.0054123126684768996,0.030069696733554842,-0.9994473996154147,0,0.05677210334192257,-0.9979263180217353,-0.03033137124689618,0,-0.998229910372637,-0.05690164430154767,0.003693758374472443,0,-0.0028650760650634766,-0.0023845587857067585,-0.006444275379180908,1],"name":"Oberschenkelknochen_L002_166","extras":{"name":"Oberschenkelknochen L.002_166"},"children":[0]}],"bufferViews":[{"buffer":0,"byteOffset":0,"byteLength":423036,"target":34962,"byteStride":12},{"buffer":0,"byteOffset":423036,"byteLength":423036,"target":34962,"byteStride":12},{"buffer":0,"byteOffset":846072,"byteLength":282024,"target":34962,"byteStride":8},{"buffer":0,"byteOffset":1128096,"byteLength":741768,"target":34963}],"buffers":[{"byteLength":1869864,"uri":"data:application/octet-stream;base64,"}],"accessors":[{"bufferView":0,"componentType":5126,"count":35253,"max":[0.999906063079834,0.9993104338645935,0.9999939203262329],"min":[-0.9999369978904724,-0.9998517632484436,-0.9999943971633911],"type":"VEC3"},{"bufferView":1,"componentType":5126,"count":35253,"max":[0.2514510452747345,0.08097962290048599,0.10322553664445877],"min":[-0.25515317916870117,-1.8512095212936401,-0.24372880160808563],"type":"VEC3"},{"bufferView":2,"componentType":5126,"count":35253,"max":[1.0246859788894653,1.304995059967041],"min":[-0.24067199230194092,-0.27897727489471436],"type":"VEC2"},{"bufferView":3,"componentType":5125,"count":185442,"max":[35252],"min":[0],"type":"SCALAR"}],"materials":[{"pbrMetallicRoughness":{"metallicFactor":0,"roughnessFactor":0.455777,"baseColorTexture":{"index":0,"texCoord":0}},"doubleSided":true,"name":"Bone","extensions":{"KHR_materials_specular":{"specularTexture":{"index":1,"texCoord":0},"specularFactor":1,"specularColorFactor":[1,1,1]}}}],"textures":[{"sampler":0,"source":0,"name":"textures/Bone_baseColor.jpeg"},{"sampler":1,"source":1,"name":"textures/Bone_specularf0.png"}],"samplers":[{"magFilter":9729,"minFilter":9987,"wrapS":10497,"wrapT":10497},{"magFilter":9729,"minFilter":9987,"wrapS":10497,"wrapT":10497}],"images":[{"mimeType":"image/jpeg","uri":"data:image/jpeg;base64,"},{"mimeType":"image/png","uri":"data:image/png;base64,"}],"meshes":[{"primitives":[{"mode":4,"attributes":{"NORMAL":0,"POSITION":1,"TEXCOORD_0":2},"indices":3,"material":0}]}],"extensionsUsed":["KHR_materials_specular"]}