{
	"asset":{
		"generator":"Khronos glTF Blender I/O v4.0.44",
		"version":"2.0"
	},
	"extensionsUsed":[
		"KHR_materials_specular"
	],
	"scene":0,
	"scenes":[
		{
			"name":"Scene",
			"nodes":[
				0,
				1,
				2
			]
		}
	],
	"nodes":[
		{
			"mesh":0,
			"name":"Object_118",
			"rotation":[
				-0.04568570852279663,
				-0.04326082020998001,
				-0.006240273360162973,
				0.9979991912841797
			],
			"translation":[
				4.477763652801514,
				6.157621383666992,
				1.571508526802063
			]
		},
		{
			"mesh":1,
			"name":"Object_116",
			"rotation":[
				-0.04568570852279663,
				-0.04326082020998001,
				-0.006240274291485548,
				0.9979991912841797
			],
			"translation":[
				4.48518705368042,
				6.1615190505981445,
				1.5723775625228882
			]
		},
		{
			"mesh":2,
			"name":"Object_113",
			"rotation":[
				-0.05394372716546059,
				0.03710110858082771,
				-0.007891065441071987,
				0.9978232979774475
			],
			"translation":[
				3.324566125869751,
				6.155476093292236,
				1.5841199159622192
			]
		}
	],
	"materials":[
		{
			"doubleSided":true,
			"extensions":{
				"KHR_materials_specular":{
					"specularTexture":{
						"index":0
					}
				}
			},
			"name":"Bone",
			"pbrMetallicRoughness":{
				"baseColorTexture":{
					"index":1
				},
				"metallicFactor":0,
				"roughnessFactor":0.45577698945999146
			}
		}
	],
	"meshes":[
		{
			"name":"Object_51",
			"primitives":[
				{
					"attributes":{
						"POSITION":0,
						"NORMAL":1,
						"TEXCOORD_0":2
					},
					"indices":3,
					"material":0
				}
			]
		},
		{
			"name":"Object_50",
			"primitives":[
				{
					"attributes":{
						"POSITION":4,
						"NORMAL":5,
						"TEXCOORD_0":6
					},
					"indices":7,
					"material":0
				}
			]
		},
		{
			"name":"Object_49",
			"primitives":[
				{
					"attributes":{
						"POSITION":8,
						"NORMAL":9,
						"TEXCOORD_0":10
					},
					"indices":11,
					"material":0
				}
			]
		}
	],
	"textures":[
		{
			"sampler":0,
			"source":0
		},
		{
			"sampler":0,
			"source":1
		}
	],
	"images":[
		{
			"mimeType":"image/png",
			"name":"Bone_specularf0",
			"uri":"Bone_specularf0.png"
		},
		{
			"mimeType":"image/jpeg",
			"name":"Bone_baseColor",
			"uri":"Bone_baseColor.jpg"
		}
	],
	"accessors":[
		{
			"bufferView":0,
			"componentType":5126,
			"count":7773,
			"max":[
				1.0592893362045288,
				0.08779380470514297,
				0.1512889564037323
			],
			"min":[
				-0.055587369948625565,
				-0.06917206197977066,
				-0.13219861686229706
			],
			"type":"VEC3"
		},
		{
			"bufferView":1,
			"componentType":5126,
			"count":7773,
			"type":"VEC3"
		},
		{
			"bufferView":2,
			"componentType":5126,
			"count":7773,
			"type":"VEC2"
		},
		{
			"bufferView":3,
			"componentType":5123,
			"count":38184,
			"type":"SCALAR"
		},
		{
			"bufferView":4,
			"componentType":5126,
			"count":12245,
			"max":[
				1.041681170463562,
				0.19567321240901947,
				0.15668435394763947
			],
			"min":[
				0.03819476068019867,
				0.03721743822097778,
				-0.04213839769363403
			],
			"type":"VEC3"
		},
		{
			"bufferView":5,
			"componentType":5126,
			"count":12245,
			"type":"VEC3"
		},
		{
			"bufferView":6,
			"componentType":5126,
			"count":12245,
			"type":"VEC2"
		},
		{
			"bufferView":7,
			"componentType":5123,
			"count":63882,
			"type":"SCALAR"
		},
		{
			"bufferView":8,
			"componentType":5126,
			"count":36257,
			"max":[
				1.2252330780029297,
				0.14624571800231934,
				0.14889007806777954
			],
			"min":[
				-0.08826766163110733,
				-0.11427298188209534,
				-0.09505676478147507
			],
			"type":"VEC3"
		},
		{
			"bufferView":9,
			"componentType":5126,
			"count":36257,
			"type":"VEC3"
		},
		{
			"bufferView":10,
			"componentType":5126,
			"count":36257,
			"type":"VEC2"
		},
		{
			"bufferView":11,
			"componentType":5123,
			"count":191940,
			"type":"SCALAR"
		}
	],
	"bufferViews":[
		{
			"buffer":0,
			"byteLength":93276,
			"byteOffset":0,
			"target":34962
		},
		{
			"buffer":0,
			"byteLength":93276,
			"byteOffset":93276,
			"target":34962
		},
		{
			"buffer":0,
			"byteLength":62184,
			"byteOffset":186552,
			"target":34962
		},
		{
			"buffer":0,
			"byteLength":76368,
			"byteOffset":248736,
			"target":34963
		},
		{
			"buffer":0,
			"byteLength":146940,
			"byteOffset":325104,
			"target":34962
		},
		{
			"buffer":0,
			"byteLength":146940,
			"byteOffset":472044,
			"target":34962
		},
		{
			"buffer":0,
			"byteLength":97960,
			"byteOffset":618984,
			"target":34962
		},
		{
			"buffer":0,
			"byteLength":127764,
			"byteOffset":716944,
			"target":34963
		},
		{
			"buffer":0,
			"byteLength":435084,
			"byteOffset":844708,
			"target":34962
		},
		{
			"buffer":0,
			"byteLength":435084,
			"byteOffset":1279792,
			"target":34962
		},
		{
			"buffer":0,
			"byteLength":290056,
			"byteOffset":1714876,
			"target":34962
		},
		{
			"buffer":0,
			"byteLength":383880,
			"byteOffset":2004932,
			"target":34963
		}
	],
	"samplers":[
		{
			"magFilter":9729,
			"minFilter":9987
		}
	],
	"buffers":[
		{
			"byteLength":2388812,
			"uri":"scene.bin"
		}
	]
}
