{
  "accessors": [
    {
      "bufferView": 2,
      "componentType": 5126,
      "count": 18057,
      "max": [
        0.8631880283355713,
        0.22119399905204773,
        -3.9999998989515007e-05
      ],
      "min": [
        -0.85316002368927,
        -0.2062309980392456,
        -2.1153900623321533
      ],
      "type": "VEC3"
    },
    {
      "bufferView": 2,
      "byteOffset": 216684,
      "componentType": 5126,
      "count": 18057,
      "max": [
        0.9999359846115112,
        0.9999591112136841,
        0.9999985694885254
      ],
      "min": [
        -0.9999549388885498,
        -0.9999774694442749,
        -0.9999997615814209
      ],
      "type": "VEC3"
    },
    {
      "bufferView": 1,
      "componentType": 5126,
      "count": 18057,
      "max": [
        -0.004997999873012304,
        1.9967039823532104
      ],
      "min": [
        -0.9951480031013489,
        1.0037519931793213
      ],
      "type": "VEC2"
    },
    {
      "bufferView": 0,
      "componentType": 5125,
      "count": 99720,
      "type": "SCALAR"
    }
  ],
  "asset": {
    "extras": {
      "author": "vistaalienprime (https://sketchfab.com/vistaalienprime5665288)",
      "license": "CC-BY-4.0 (http://creativecommons.org/licenses/by/4.0/)",
      "source": "https://sketchfab.com/3d-models/human-body-f022e4a3641943328b2fbfdf0f7c3e1e",
      "title": "HUMAN_BODY"
    },
    "generator": "Sketchfab-12.66.0",
    "version": "2.0"
  },
  "bufferViews": [
    {
      "buffer": 0,
      "byteLength": 398880,
      "name": "floatBufferViews",
      "target": 34963
    },
    {
      "buffer": 0,
      "byteLength": 144456,
      "byteOffset": 398880,
      "byteStride": 8,
      "name": "floatBufferViews",
      "target": 34962
    },
    {
      "buffer": 0,
      "byteLength": 433368,
      "byteOffset": 543336,
      "byteStride": 12,
      "name": "floatBufferViews",
      "target": 34962
    }
  ],
  "buffers": [
    {
      "byteLength": 976704,
      "uri": "scene.bin"
    }
  ],
  "materials": [
    {
      "doubleSided": true,
      "name": "Material.001",
      "pbrMetallicRoughness": {
        "metallicFactor": 0.0,
        "roughnessFactor": 0.5
      }
    }
  ],
  "meshes": [
    {
      "name": "Object_0",
      "primitives": [
        {
          "attributes": {
            "NORMAL": 1,
            "POSITION": 0,
            "TEXCOORD_0": 2
          },
          "indices": 3,
          "material": 0,
          "mode": 4
        }
      ]
    }
  ],
  "nodes": [
    {
      "children": [
        1
      ],
      "matrix": [
        1.0,
        0.0,
        0.0,
        0.0,
        0.0,
        2.220446049250313e-16,
        -1.0,
        0.0,
        0.0,
        1.0,
        2.220446049250313e-16,
        0.0,
        0.0,
        0.0,
        0.0,
        1.0
      ],
      "name": "Sketchfab_model"
    },
    {
      "children": [
        2
      ],
      "name": "root"
    },
    {
      "children": [
        3
      ],
      "matrix": [
        1.0,
        0.0,
        0.0,
        0.0,
        0.0,
        2.220446049250313e-16,
        1.0,
        0.0,
        0.0,
        -1.0,
        2.220446049250313e-16,
        0.0,
        0.0,
        0.0,
        0.0,
        1.0
      ],
      "name": "GLTF_SceneRootNode"
    },
    {
      "children": [
        4
      ],
      "matrix": [
        2.112835645675659,
        0.0,
        0.0,
        0.0,
        0.0,
        -3.561974616485138e-07,
        2.112835645675629,
        0.0,
        0.0,
        -2.112835645675629,
        -3.561974616485138e-07,
        0.0,
        0.0,
        0.0,
        0.0,
        1.0
      ],
      "name": "BaseSpiderMan_0"
    },
    {
      "mesh": 0,
      "name": "Object_4"
    }
  ],
  "scene": 0,
  "scenes": [
    {
      "name": "Sketchfab_Scene",
      "nodes": [
        0
      ]
    }
  ]
}
