{
	"asset":{
		"generator":"Khronos glTF Blender I/O v4.0.44",
		"version":"2.0"
	},
	"extensionsUsed":[
		"KHR_materials_specular"
	],
	"scene":0,
	"scenes":[
		{
			"name":"Scene",
			"nodes":[
				0,
				1,
				2
			]
		}
	],
	"nodes":[
		{
			"mesh":0,
			"name":"Object_203",
			"rotation":[
				-0.04663791134953499,
				0.05112743750214577,
				0.003329342929646373,
				0.9975970387458801
			],
			"translation":[
				0.8808717727661133,
				6.182316780090332,
				1.6082547903060913
			]
		},
		{
			"mesh":1,
			"name":"Object_201",
			"rotation":[
				-0.046637918800115585,
				0.05112743377685547,
				0.0033293396700173616,
				0.9975970387458801
			],
			"translation":[
				0.873414158821106,
				6.182680606842041,
				1.6092662811279297
			]
		},
		{
			"mesh":2,
			"name":"Object_198",
			"rotation":[
				-0.0547000877559185,
				-0.02924194745719433,
				0.004850578494369984,
				0.998062789440155
			],
			"translation":[
				2.0173392295837402,
				6.161574363708496,
				1.5896624326705933
			]
		}
	],
	"materials":[
		{
			"doubleSided":true,
			"extensions":{
				"KHR_materials_specular":{
					"specularTexture":{
						"index":0
					}
				}
			},
			"name":"Bone",
			"pbrMetallicRoughness":{
				"baseColorTexture":{
					"index":1
				},
				"metallicFactor":0,
				"roughnessFactor":0.45577698945999146
			}
		}
	],
	"meshes":[
		{
			"name":"Object_82",
			"primitives":[
				{
					"attributes":{
						"POSITION":0,
						"NORMAL":1,
						"TEXCOORD_0":2
					},
					"indices":3,
					"material":0
				}
			]
		},
		{
			"name":"Object_81",
			"primitives":[
				{
					"attributes":{
						"POSITION":4,
						"NORMAL":5,
						"TEXCOORD_0":6
					},
					"indices":7,
					"material":0
				}
			]
		},
		{
			"name":"Object_80",
			"primitives":[
				{
					"attributes":{
						"POSITION":8,
						"NORMAL":9,
						"TEXCOORD_0":10
					},
					"indices":11,
					"material":0
				}
			]
		}
	],
	"textures":[
		{
			"sampler":0,
			"source":0
		},
		{
			"sampler":0,
			"source":1
		}
	],
	"images":[
		{
			"mimeType":"image/png",
			"name":"Bone_specularf0",
			"uri":"Bone_specularf0.png"
		},
		{
			"mimeType":"image/jpeg",
			"name":"Bone_baseColor",
			"uri":"Bone_baseColor.jpg"
		}
	],
	"accessors":[
		{
			"bufferView":0,
			"componentType":5126,
			"count":7948,
			"max":[
				0.05772995203733444,
				0.07025867700576782,
				0.1128244698047638
			],
			"min":[
				-1.0624799728393555,
				-0.07261203974485397,
				-0.13262127339839935
			],
			"type":"VEC3"
		},
		{
			"bufferView":1,
			"componentType":5126,
			"count":7948,
			"type":"VEC3"
		},
		{
			"bufferView":2,
			"componentType":5126,
			"count":7948,
			"type":"VEC2"
		},
		{
			"bufferView":3,
			"componentType":5123,
			"count":39144,
			"type":"SCALAR"
		},
		{
			"bufferView":4,
			"componentType":5126,
			"count":12578,
			"max":[
				-0.039694689214229584,
				0.18323174118995667,
				0.1184011921286583
			],
			"min":[
				-1.047637939453125,
				0.034992896020412445,
				-0.04531030356884003
			],
			"type":"VEC3"
		},
		{
			"bufferView":5,
			"componentType":5126,
			"count":12578,
			"type":"VEC3"
		},
		{
			"bufferView":6,
			"componentType":5126,
			"count":12578,
			"type":"VEC2"
		},
		{
			"bufferView":7,
			"componentType":5123,
			"count":65388,
			"type":"SCALAR"
		},
		{
			"bufferView":8,
			"componentType":5126,
			"count":32726,
			"max":[
				0.10360383242368698,
				0.1583493947982788,
				0.14319968223571777
			],
			"min":[
				-1.2099244594573975,
				-0.12064754962921143,
				-0.10160993784666061
			],
			"type":"VEC3"
		},
		{
			"bufferView":9,
			"componentType":5126,
			"count":32726,
			"type":"VEC3"
		},
		{
			"bufferView":10,
			"componentType":5126,
			"count":32726,
			"type":"VEC2"
		},
		{
			"bufferView":11,
			"componentType":5123,
			"count":165564,
			"type":"SCALAR"
		}
	],
	"bufferViews":[
		{
			"buffer":0,
			"byteLength":95376,
			"byteOffset":0,
			"target":34962
		},
		{
			"buffer":0,
			"byteLength":95376,
			"byteOffset":95376,
			"target":34962
		},
		{
			"buffer":0,
			"byteLength":63584,
			"byteOffset":190752,
			"target":34962
		},
		{
			"buffer":0,
			"byteLength":78288,
			"byteOffset":254336,
			"target":34963
		},
		{
			"buffer":0,
			"byteLength":150936,
			"byteOffset":332624,
			"target":34962
		},
		{
			"buffer":0,
			"byteLength":150936,
			"byteOffset":483560,
			"target":34962
		},
		{
			"buffer":0,
			"byteLength":100624,
			"byteOffset":634496,
			"target":34962
		},
		{
			"buffer":0,
			"byteLength":130776,
			"byteOffset":735120,
			"target":34963
		},
		{
			"buffer":0,
			"byteLength":392712,
			"byteOffset":865896,
			"target":34962
		},
		{
			"buffer":0,
			"byteLength":392712,
			"byteOffset":1258608,
			"target":34962
		},
		{
			"buffer":0,
			"byteLength":261808,
			"byteOffset":1651320,
			"target":34962
		},
		{
			"buffer":0,
			"byteLength":331128,
			"byteOffset":1913128,
			"target":34963
		}
	],
	"samplers":[
		{
			"magFilter":9729,
			"minFilter":9987
		}
	],
	"buffers":[
		{
			"byteLength":2244256,
			"uri":"scene.bin"
		}
	]
}
